#!OML:ASF E:\motion texture\Top Level 1\Subject 1\Session 1\male.ASF
:FULLY-SPECIFIED
:DEGREES
158
root 12.0565 17.9435 5.33012 138.175 -89.415 -134.843
lowerback 0.361528 -1.33209 -1.5503
upperback -1.75266 -1.8049 4.82093
thorax -1.80535 -0.876255 5.89927
lowerneck -13.9088 0.977854 -0.416913
upperneck 15.6102 0.817243 2.91425
head 7.0553 0.599924 1.09251
rclavicle -2.41213e-014 3.02153e-014
rhumerus -21.0203 7.07795 -71.658
rradius 51.3714
rwrist 5.93281
rhand -12.1644 -19.5315
rfingers 7.12502
rthumb 13.8986 -49.0471
lclavicle -2.41213e-014 3.02153e-014
lhumerus 6.77675 -19.9745 28.2251
lradius 64.8691
lwrist -20.3882
lhand -25.6021 17.6502
lfingers 7.12502
lthumb 0.930003 47.628
rfemur -30.9902 -8.37372 18.313
rtibia 51.3279
rfoot -7.14579 -21.4095
rtoes 6.52216
lfemur -3.03907 -3.18566 -22.2148
ltibia 16.0012
lfoot -11.7775 2.31392
ltoes -1.01415
159
root 11.9302 17.9392 5.33084 153.719 -89.4977 -150.251
lowerback 0.319953 -1.35692 -1.75336
upperback -1.75815 -1.84132 4.88524
thorax -1.77574 -0.891988 6.08299
lowerneck -13.8975 1.07744 -0.282959
upperneck 15.3961 0.920179 2.98152
head 6.98272 0.663334 1.10069
rclavicle 2.20154e-014 -1.11319e-014
rhumerus -21.0811 6.71278 -71.3532
rradius 51.0845
rwrist 5.86009
rhand -12.2501 -19.6863
rfingers 7.12502
rthumb 13.816 -49.2075
lclavicle 2.20154e-014 -1.11319e-014
lhumerus 7.82908 -17.7787 26.4242
lradius 64.2292
lwrist -19.8984
lhand -25.702 17.7249
lfingers 7.12502
lthumb 0.83357 47.703
rfemur -31.3838 -8.31019 18.0947
rtibia 49.2543
rfoot -7.30623 -21.5168
rtoes 6.7768
lfemur -2.62567 -3.12631 -22.4434
ltibia 15.8289
lfoot -12.008 2.32852
ltoes -1.23808
160
root 11.8036 17.9341 5.33107 173.369 -89.531 -169.747
lowerback 0.26872 -1.3809 -1.94544
upperback -1.76197 -1.87636 4.9434
thorax -1.73934 -0.907438 6.25372
lowerneck -13.8881 1.18866 -0.153672
upperneck 15.1706 1.03763 3.06504
head 6.90664 0.734576 1.11608
rclavicle -1.11816e-014 -4.77083e-015
rhumerus -21.1434 6.29775 -71.0474
rradius 50.7476
rwrist 5.78412
rhand -12.3578 -19.9209
rfingers 7.12502
rthumb 13.7122 -49.4492
lclavicle -1.11816e-014 -4.77083e-015
lhumerus 8.80114 -15.49 24.7871
lradius 63.4827
lwrist -19.5276
lhand -25.8213 17.812
lfingers 7.12502
lthumb 0.71836 47.7906
rfemur -31.7206 -8.23826 17.8694
rtibia 47.0473
rfoot -7.33361 -21.5635
rtoes 7.03101
lfemur -2.24024 -3.02982 -22.6649
ltibia 15.6773
lfoot -12.2369 2.32802
ltoes -1.49111
161
root 11.6764 17.9282 5.33091 193.949 -89.5059 -190.163
lowerback 0.211503 -1.4019 -2.13003
upperback -1.76557 -1.907 4.9908
thorax -1.70019 -0.920889 6.40866
lowerneck -13.8604 1.30713 -0.0171006
upperneck 14.9228 1.16324 3.15508
head 6.82027 0.810125 1.13258
rclavicle 1.9307e-014 -5.40694e-014
rhumerus -21.2266 5.82407 -70.7427
rradius 50.3744
rwrist 5.70794
rhand -12.4582 -20.2115
rfingers 7.12502
rthumb 13.6154 -49.7462
lclavicle 1.9307e-014 -5.40694e-014
lhumerus 9.70997 -13.1284 23.3081
lradius 62.6474
lwrist -19.261
lhand -25.9292 17.8634
lfingers 7.12502
lthumb 0.614108 47.8423
rfemur -31.9915 -8.15796 17.6297
rtibia 44.7001
rfoot -7.20227 -21.5387
rtoes 7.21425
lfemur -1.87433 -2.91184 -22.8893
ltibia 15.5434
lfoot -12.4637 2.3238
ltoes -1.78796
162
root 11.5487 17.9215 5.33021 209.361 -89.4405 -205.391
lowerback 0.141294 -1.41903 -2.28374
upperback -1.77208 -1.932 5.03374
thorax -1.65831 -0.93211 6.54082
lowerneck -13.8487 1.43461 0.127156
upperneck 14.6857 1.29641 3.26046
head 6.74022 0.890801 1.1535
rclavicle 2.65874e-015 1.43125e-014
rhumerus -21.3301 5.28222 -70.436
rradius 49.9615
rwrist 5.63553
rhand -12.5204 -20.5023
rfingers 7.12502
rthumb 13.5555 -50.041
lclavicle 2.65874e-015 1.43125e-014
lhumerus 10.5823 -10.7097 21.9769
lradius 61.7163
lwrist -19.1332
lhand -26.1044 17.9701
lfingers 7.12502
lthumb 0.444875 47.9494
rfemur -32.2051 -8.06016 17.403
rtibia 42.2138
rfoot -6.88503 -21.4381
rtoes 7.2878
lfemur -1.53418 -2.79548 -23.0897
ltibia 15.4185
lfoot -12.6779 2.32978
ltoes -2.15326
163
root 11.4204 17.914 5.32893 221.537 -89.3524 -217.369
lowerback 0.0533853 -1.43554 -2.42614
upperback -1.77607 -1.95574 5.06617
thorax -1.60455 -0.943241 6.65471
lowerneck -13.8299 1.56652 0.269171
upperneck 14.4412 1.4329 3.38658
head 6.65656 0.974124 1.18136
rclavicle 3.0588e-014 -3.02153e-014
rhumerus -21.4519 4.67352 -70.1291
rradius 49.5154
rwrist 5.56082
rhand -12.5291 -20.7661
rfingers 7.12502
rthumb 13.5471 -50.3054
lclavicle 3.0588e-014 -3.02153e-014
lhumerus 11.4349 -8.23864 20.7897
lradius 60.6957
lwrist -19.1365
lhand -26.351 18.1008
lfingers 7.12502
lthumb 0.206707 48.0805
rfemur -32.3552 -7.94874 17.1665
rtibia 39.5944
rfoot -6.38093 -21.2502
rtoes 7.29919
lfemur -1.21057 -2.6932 -23.2898
ltibia 15.2982
lfoot -12.8798 2.34094
ltoes -2.58673
164
root 11.2909 17.9055 5.32719 231.27 -89.2465 -226.892
lowerback -0.0405161 -1.45138 -2.56225
upperback -1.7869 -1.978 5.08971
thorax -1.55505 -0.953522 6.75552
lowerneck -13.7921 1.6969 0.401565
upperneck 14.1987 1.56661 3.52995
head 6.57032 1.05628 1.21555
rclavicle -1.19519e-014 2.06736e-014
rhumerus -21.6141 4.01298 -69.8177
rradius 49.0484
rwrist 5.48349
rhand -12.4866 -21.0073
rfingers 7.12502
rthumb 13.5881 -50.5439
lclavicle -1.19519e-014 2.06736e-014
lhumerus 12.2683 -5.74345 19.7458
lradius 59.5973
lwrist -19.2839
lhand -26.6493 18.3085
lfingers 7.12502
lthumb -0.0813284 48.2882
rfemur -32.4351 -7.81358 16.9115
rtibia 36.8506
rfoot -5.71643 -20.9688
rtoes 7.27675
lfemur -0.895135 -2.61937 -23.4961
ltibia 15.1774
lfoot -13.0685 2.36201
ltoes -3.06157
165
root 11.1608 17.8963 5.32457 238.664 -89.1289 -234.063
lowerback -0.123983 -1.46761 -2.6938
upperback -1.83392 -1.9999 5.11022
thorax -1.54905 -0.961938 6.85181
lowerneck -13.66 1.8264 0.510543
upperneck 13.9551 1.70147 3.69585
head 6.46726 1.13794 1.25926
rclavicle -1.49337e-014 0
rhumerus -21.8777 3.34295 -69.4967
rradius 48.5846
rwrist 5.38697
rhand -12.3983 -21.1912
rfingers 7.12502
rthumb 13.6732 -50.722
lclavicle -1.49337e-014 0
lhumerus 13.0657 -3.29795 18.8288
lradius 58.4373
lwrist -19.4856
lhand -27.0433 18.5917
lfingers 7.12502
lthumb -0.461876 48.571
rfemur -32.4552 -7.6238 16.6411
rtibia 34.006
rfoot -4.96799 -20.6051
rtoes 7.26314
lfemur -0.596939 -2.56717 -23.6958
ltibia 15.0634
lfoot -13.2457 2.37911
ltoes -3.57673
166
root 11.0292 17.886 5.32076 245.016 -89.0105 -240.185
lowerback -0.214497 -1.48051 -2.81995
upperback -1.88311 -2.01697 5.12481
thorax -1.5423 -0.967933 6.93849
lowerneck -13.5228 1.94497 0.611837
upperneck 13.7126 1.82371 3.86343
head 6.36395 1.2126 1.30302
rclavicle -6.85807e-015 3.02153e-014
rhumerus -22.1785 2.62554 -69.1576
rradius 48.1124
rwrist 5.27509
rhand -12.2931 -21.4057
rfingers 7.12502
rthumb 13.7746 -50.9297
lclavicle -6.85807e-015 3.02153e-014
lhumerus 13.8704 -0.878222 18.0182
lradius 57.2455
lwrist -19.6928
lhand -27.4047 18.8407
lfingers 7.12502
lthumb -0.81099 48.8189
rfemur -32.4053 -7.35653 16.3422
rtibia 31.083
rfoot -4.25462 -20.1943
rtoes 7.23061
lfemur -0.313457 -2.5302 -23.882
ltibia 14.9643
lfoot -13.4244 2.37231
ltoes -4.08236
